<svg xmlns="http://www.w3.org/2000/svg" viewBox="0 0 400 400" fill="none">
  <!-- Background circle -->
  <circle cx="200" cy="200" r="190" fill="#1a2744"/>
  
  <!-- Mountain peaks -->
  <path d="M60 290 L160 120 L210 190 L260 100 L340 290 Z" fill="#4da8da" opacity="0.9"/>
  <path d="M60 290 L160 120 L210 190 L170 190 L160 170 L100 290 Z" fill="#3d93c2"/>
  
  <!-- Snow caps -->
  <path d="M160 120 L145 155 L175 155 Z" fill="white"/>
  <path d="M260 100 L242 140 L278 140 Z" fill="white"/>
  
  <!-- Air flow lines -->
  <path d="M80 230 Q130 215 180 230" stroke="white" stroke-width="4" stroke-linecap="round" fill="none" opacity="0.6"/>
  <path d="M100 250 Q155 233 210 250" stroke="white" stroke-width="3.5" stroke-linecap="round" fill="none" opacity="0.45"/>
  <path d="M120 268 Q170 253 230 268" stroke="white" stroke-width="3" stroke-linecap="round" fill="none" opacity="0.3"/>
  
  <!-- Snowflake accent -->
  <g transform="translate(310, 160)" stroke="white" stroke-width="2.5" stroke-linecap="round" opacity="0.7">
    <line x1="0" y1="-14" x2="0" y2="14"/>
    <line x1="-12" y1="-7" x2="12" y2="7"/>
    <line x1="-12" y1="7" x2="12" y2="-7"/>
    <line x1="-4" y1="-11" x2="4" y2="-11"/>
    <line x1="-4" y1="11" x2="4" y2="11"/>
  </g>
</svg>
